<svg xmlns="http://www.w3.org/2000/svg" viewBox="0 0 850 300" width="850" height="300">
  <defs>
    <!-- Background Gradient -->
    <linearGradient id="bg" x1="0%" y1="0%" x2="100%" y2="100%">
      <stop offset="0%" stop-color="#0d1117" />
      <stop offset="100%" stop-color="#161b22" />
    </linearGradient>

    <!-- Tier 1: Global (Cyan) -->
    <linearGradient id="tier1" x1="0%" y1="0%" x2="0%" y2="100%">
      <stop offset="0%" stop-color="#00ADD8" stop-opacity="0.8"/>
      <stop offset="100%" stop-color="#005f73" stop-opacity="0.2"/>
    </linearGradient>

    <!-- Tier 2: Domain (Purple) -->
    <linearGradient id="tier2" x1="0%" y1="0%" x2="0%" y2="100%">
      <stop offset="0%" stop-color="#9d4edd" stop-opacity="0.8"/>
      <stop offset="100%" stop-color="#3c096c" stop-opacity="0.2"/>
    </linearGradient>

    <!-- Tier 3: Task (Red) -->
    <linearGradient id="tier3" x1="0%" y1="0%" x2="0%" y2="100%">
      <stop offset="0%" stop-color="#ff5555" stop-opacity="0.8"/>
      <stop offset="100%" stop-color="#9b2226" stop-opacity="0.2"/>
    </linearGradient>

    <!-- Glow Effect -->
    <filter id="glow" x="-20%" y="-20%" width="140%" height="140%">
      <feGaussianBlur stdDeviation="8" result="blur" />
      <feMerge>
        <feMergeNode in="blur" />
        <feMergeNode in="SourceGraphic" />
      </feMerge>
    </filter>

    <!-- Text Glow -->
    <filter id="textGlow" x="-20%" y="-20%" width="140%" height="140%">
      <feGaussianBlur stdDeviation="3" result="blur" />
      <feMerge>
        <feMergeNode in="blur" />
        <feMergeNode in="SourceGraphic" />
      </feMerge>
    </filter>
  </defs>

  <!-- Background -->
  <rect width="100%" height="100%" fill="url(#bg)" rx="20" />

  <!-- Logo Mark (Left Side) -->
  <g transform="translate(170, 170)">
    <!-- Base Layer (Tier 1: Global Semantic) -->
    <path d="M 0,90 L 120,40 L 0,-10 L -120,40 Z" fill="url(#tier1)" stroke="#00ADD8" stroke-width="2" />
    <circle cx="-50" cy="40" r="4" fill="#00ADD8" filter="url(#glow)"/>
    <circle cx="60" cy="40" r="6" fill="#00ADD8" filter="url(#glow)"/>
    <circle cx="10" cy="60" r="3" fill="#00ADD8" />
    
    <!-- Middle Layer (Tier 2: Domain Spatial) -->
    <path d="M 0,30 L 120,-20 L 0,-70 L -120,-20 Z" fill="url(#tier2)" stroke="#9d4edd" stroke-width="2" />
    <circle cx="-30" cy="-20" r="8" fill="#9d4edd" filter="url(#glow)"/>
    <circle cx="50" cy="-20" r="5" fill="#9d4edd" filter="url(#glow)"/>
    <circle cx="0" cy="-40" r="4" fill="#9d4edd" />
    <circle cx="20" cy="0" r="3" fill="#9d4edd" />
    <path d="M -30,-20 L 50,-20 L 0,-40 Z" fill="none" stroke="#9d4edd" stroke-width="1.5" stroke-dasharray="4,4" opacity="0.6"/>

    <!-- Vertical Data Streams (Retrieval) -->
    <path d="M -30,-20 L -50,40" fill="none" stroke="#ffffff" stroke-opacity="0.3" stroke-width="1.5" stroke-dasharray="2,4"/>
    <path d="M 50,-20 L 60,40" fill="none" stroke="#ffffff" stroke-opacity="0.3" stroke-width="1.5" stroke-dasharray="2,4"/>
    
    <!-- Top Layer (Tier 3: Task Working Memory) -->
    <path d="M 0,-30 L 120,-80 L 0,-130 L -120,-80 Z" fill="url(#tier3)" stroke="#ff5555" stroke-width="2" />
    <circle cx="0" cy="-80" r="12" fill="#ff5555" filter="url(#glow)"/>
    <circle cx="60" cy="-80" r="6" fill="#ff5555" filter="url(#glow)"/>
    <path d="M 0,-80 L 60,-80" fill="none" stroke="#ff5555" stroke-width="2" />

    <!-- Active Task to Domain stream -->
    <path d="M 0,-80 L -30,-20" fill="none" stroke="#ffffff" stroke-opacity="0.6" stroke-width="2" stroke-dasharray="4,4"/>
    <path d="M 60,-80 L 50,-20" fill="none" stroke="#ffffff" stroke-opacity="0.3" stroke-width="1" stroke-dasharray="2,4"/>
    
    <!-- Cognitive Pulse Effect (Center Core) -->
    <circle cx="0" cy="-80" r="25" fill="none" stroke="#ff5555" stroke-width="1" opacity="0.4" stroke-dasharray="2,4" filter="url(#glow)"/>
  </g>

  <!-- Typography (Right Side) -->
  <g transform="translate(350, 150)">
    <text x="0" y="0" font-family="'Inter', -apple-system, sans-serif" font-weight="900" font-size="80" fill="#ffffff" letter-spacing="4">STRATA</text>
    <text x="5" y="45" font-family="'Inter', -apple-system, monospace" font-weight="400" font-size="20" fill="#8b949e" letter-spacing="8">COGNITIVE ARCHITECTURE</text>
    
    <!-- Tiny Tier Legend -->
    <g transform="translate(5, 80)">
      <circle cx="0" cy="-5" r="4" fill="#00ADD8" filter="url(#glow)"/>
      <text x="15" y="0" font-family="monospace" font-size="12" fill="#8b949e">GLOBAL</text>
      
      <circle cx="90" cy="-5" r="4" fill="#9d4edd" filter="url(#glow)"/>
      <text x="105" y="0" font-family="monospace" font-size="12" fill="#8b949e">DOMAIN</text>

      <circle cx="180" cy="-5" r="4" fill="#ff5555" filter="url(#glow)"/>
      <text x="195" y="0" font-family="monospace" font-size="12" fill="#8b949e">TASK</text>
    </g>
  </g>

</svg>